<mxfile host="app.diagrams.net" modified="2024-02-19T12:26:24.585Z" agent="Mozilla/5.0 (Macintosh; Intel Mac OS X 10_15_7) AppleWebKit/537.36 (KHTML, like Gecko) Chrome/121.0.0.0 Safari/537.36" version="23.1.1" etag="oq1txadtElsehjpkx0cz" type="github">
  <diagram name="第 1 页" id="SBw-rNIHprHXXV2s7-NO">
    <mxGraphModel>
      <root>
        <mxCell id="0" />
        <mxCell id="1" parent="0" />
      </root>
    </mxGraphModel>
  </diagram>
</mxfile>
